<?xml version="1.0" encoding="UTF-8" standalone="yes"?>
<!-- Created with sK1/UniConvertor (http://sk1project.org/) -->
<svg xmlns="http://www.w3.org/2000/svg" xmlns:xlink="http://www.w3.org/1999/xlink"
  width="800pt" height="800pt" viewBox="0 0 800 800"
  fill-rule="evenodd">
<g>
<g>
<path style="stroke:none; fill:#000000" d="M 0 400L 0 800L 400 800L 800 800L 800 400L 800 0L 400 0L 0 0L 0 400zM 429.2 163.7L 457 191.5L 457 230.7C 457 252.3 456.8 270 456.6 270C 456.4 270 454 269.1 451.4 267.9C 446.1 265.7 428.9 261 425.9 261C 424 261 424 264.3 424 400C 424 526.1 424.1 539 425.6 539C 429 539 447 533.8 455.3 530.5C 456.9 529.8 457 532.1 457 569.1L 457 608.5L 429 636.5L 401 664.5L 373 636.5L 344.9 608.5L 345.1 569.3C 345.2 547.7 345.4 530 345.6 530C 345.8 530 348.3 530.9 351.1 532C 356.5 534.2 374.2 539 376.6 539C 377.8 539 378 518 378 400C 378 268.3 377.9 261 376.3 261C 373.7 261 357.3 265.5 351.4 267.9C 348.5 269 346 269.6 345.7 269.4C 345.4 269.1 345.1 251.4 345 230.2L 344.9 191.6L 372.7 163.8C 388 148.5 400.7 136 401 136C 401.3 136 414 148.5 429.2 163.7zM 326 400.2L 326 589.4L 307.8 571.5C 262.9 527.4 244.3 504.8 231.7 479.5C 223.3 462.6 217.6 442 215 418.5C 210.8 380.8 220.7 337.1 241 303.5C 251.1 286.7 258.3 278.5 291.8 244.7C 310.3 226.2 325.6 211 325.7 211C 325.9 211 326 296.1 326 400.2zM 513.6 248C 529.7 264.2 545.3 280.4 548.1 284C 563.7 303.5 575.9 328.1 582.4 353.3C 585.1 363.8 588.5 384.8 587.6 385.7C 587.3 386 579.6 378.8 570.4 369.6C 561.2 360.4 553.6 353.1 553.4 353.3C 553.2 353.5 553.1 374.7 553.2 400.3L 553.5 447L 570 430.5C 579.1 421.4 586.9 414 587.3 414C 588.3 414 587.4 422.3 584.8 435.9C 579.5 464.1 565.4 494.5 547.4 516.8C 543.2 522 520.8 544.9 489.6 576L 477 588.5L 477 553.9L 477 519.3L 483.3 514.9C 486.7 512.5 493.4 506.8 498.3 502.1L 507 493.7L 507 399.8L 507 305.9L 499.3 298.5C 495 294.4 488.2 288.7 484.3 285.8L 477 280.6L 477 246.1L 477 211.6L 480.6 215.1C 482.5 216.9 497.4 231.8 513.6 248z"/>
<path style="stroke:none; fill:#000000" d="M 275.2 336.8C 255.3 375.4 255.3 424.6 275.4 463.5L 279.5 471.5L 279.8 435.7C 279.9 416.1 279.9 383.9 279.8 364.2L 279.5 328.5L 275.2 336.8z"/>
</g>
</g>
</svg>